<?xml version="1.0" encoding="utf-8"?>
<svg xmlns="http://www.w3.org/2000/svg" viewBox="0 0 500 500">
  <g transform="matrix(0.061058, 0, 0, -0.061058, -2710.725911, -3663.206408)" fill="#000000" stroke="none" style="transform-origin: 2847px 3981.12px;">
    <g transform="matrix(1, 0, 0, 1, 1862.585749, 1112.286288)">
      <path d="M2135 7626 c-79 -16 -296 -107 -397 -166 -113 -68 -177 -160 -250 -365 -29 -80 -34 -108 -48 -259 -5 -59 -17 -132 -27 -162 -13 -42 -14 -59 -5 -79 16 -35 44 -32 116 13 100 63 118 67 336 64 240 -4 289 -11 437 -66 173 -64 210 -83 284 -153 81 -77 131 -166 159 -287 39 -162 11 -197 -297 -369 -116 -66 -220 -129 -231 -140 -51 -57 -127 -447 -103 -528 13 -43 76 -103 135 -129 22 -10 70 -23 106 -29 36 -6 142 -25 235 -41 94 -16 208 -34 255 -38 123 -13 186 -52 131 -82 -24 -12 -117 -12 -186 0 -93 17 -199 29 -350 40 -82 6 -184 20 -225 31 -80 20 -372 49 -506 49 -105 0 -158 17 -255 81 -97 64 -119 92 -119 153 0 64 31 96 94 96 25 0 57 -5 72 -10 57 -22 90 18 57 70 -18 28 -105 108 -161 149 -47 33 -227 66 -344 62 -39 -1 -92 -52 -117 -112 -21 -48 -22 -53 -7 -96 21 -60 56 -105 114 -144 141 -95 168 -164 139 -357 -9 -59 -21 -165 -27 -235 -5 -71 -15 -138 -21 -150 -29 -57 -73 -83 -113 -67 -45 17 -51 53 -51 353 0 318 3 307 -86 307 -90 0 -155 -89 -147 -204 3 -53 11 -75 48 -136 80 -132 71 -186 -79 -488 -97 -193 -161 -349 -161 -389 0 -66 85 -148 210 -205 133 -60 215 -59 357 7 107 49 107 53 60 290 -58 293 -58 296 -4 323 29 14 137 6 250 -19 54 -12 58 -12 78 8 30 30 34 89 19 303 -9 142 -10 192 -1 208 13 24 44 28 88 11 15 -6 136 -14 268 -19 164 -6 258 -14 297 -25 31 -8 101 -22 155 -30 105 -16 128 -29 138 -84 6 -28 38 -142 63 -226 13 -42 16 -149 20 -652 2 -385 0 -627 -7 -669 -22 -142 -110 -264 -239 -332 -56 -30 -69 -33 -125 -29 -34 2 -83 13 -110 23 -66 26 -91 11 -127 -77 -25 -63 -127 -225 -174 -278 -41 -46 -69 -51 -242 -41 -151 9 -240 26 -344 68 -64 26 -100 90 -100 177 0 67 -13 95 -44 95 -31 0 -59 -32 -95 -110 -39 -82 -43 -170 -10 -237 33 -68 143 -173 224 -213 l70 -35 185 3 c251 4 323 14 465 63 144 50 180 54 180 21 0 -17 -24 -42 -90 -95 -102 -82 -115 -105 -97 -172 17 -64 15 -229 -3 -300 -22 -83 -59 -147 -195 -335 -66 -91 -142 -201 -170 -245 -28 -44 -89 -138 -136 -210 -95 -146 -194 -340 -202 -399 -10 -72 28 -66 128 20 134 116 387 288 615 419 28 15 114 71 193 124 264 177 321 210 572 333 374 182 534 252 770 332 58 19 155 54 215 76 292 109 657 218 890 265 156 33 175 39 175 62 0 10 -35 70 -78 133 -291 430 -357 531 -402 621 -47 95 -50 105 -50 179 0 175 96 364 300 591 161 179 274 363 390 634 28 66 61 138 74 160 46 80 119 308 155 485 11 52 28 127 37 165 14 53 18 111 18 240 0 160 -2 177 -32 288 -71 262 -251 569 -459 783 -142 145 -191 184 -346 276 -116 69 -323 168 -350 168 -23 0 -127 73 -199 137 -90 82 -158 131 -253 183 -44 24 -102 58 -130 76 -150 95 -231 118 -347 102 -74 -10 -83 -10 -156 15 -42 14 -97 31 -122 37 -49 13 -121 52 -141 76 -7 8 -11 39 -10 72 2 73 -8 83 -150 152 -92 45 -115 52 -180 55 -41 3 -105 -2 -144 -9z m1579 -2642 c131 -66 202 -178 216 -337 11 -133 -2 -263 -34 -333 -29 -62 -113 -172 -161 -208 -50 -39 -115 -67 -136 -61 -53 17 -44 59 46 200 65 102 80 153 80 265 0 110 -18 173 -74 265 -50 83 -72 89 -158 45 -61 -31 -68 -32 -92 -19 -35 19 -39 66 -11 102 20 26 116 96 150 110 33 14 117 0 174 -29z" style="fill: rgb(255, 255, 255);"/>
      <path d="M953 3449 c-42 -8 -57 -21 -78 -65 -28 -59 -15 -81 72 -121 91 -42 157 -52 343 -53 129 -1 289 -12 357 -26 26 -5 34 -2 48 19 37 57 -31 123 -205 197 -58 24 -98 34 -175 40 -143 13 -324 17 -362 9z" style="fill: rgb(255, 255, 255);"/>
      <path d="M1038 3035 c-10 -22 -8 -29 12 -50 31 -33 98 -57 146 -53 32 2 40 7 42 26 5 33 -22 58 -85 82 -73 27 -101 26 -115 -5z" style="fill: rgb(255, 255, 255);"/>
    </g>
  </g>
</svg>